<?xml version="1.0" encoding="UTF-8"?>
<!-- Generator: Blender, SVG Export for Grease Pencil - v2.1 -->
<!DOCTYPE svg PUBLIC "-//W3C//DTD SVG 1.1//EN" "http://www.w3.org/Graphics/SVG/1.1/DTD/svg11.dtd">
<svg version="1.1" x="0px" y="0px" xmlns="http://www.w3.org/2000/svg" width="297.675659px" height="296.897644px" viewBox="0 0 297.675659 296.897644">
	<g id="blender_frame.1">
		<g id="blender_object.GPencil.1.uuid_0x0">
			<g id="layer.Layer.uuid_0x1">
				<path d="M270.68555,146.77106L271.3606,148.33746L272.3283,149.742L273.5514,150.93082L274.98297,151.8581L276.5678,152.4884L278.2453,152.7973L279.9508,152.77304L281.6187,152.41653L283.18506,151.74146L284.58972,150.7738L285.7785,149.55069L286.70575,148.11914L287.33606,146.53424L287.64496,144.85681L287.62067,143.15128L287.26416,141.4834L265.63434,74.40588L264.56982,72.20282L262.93304,70.384094L220.17749,27.228699L217.0542,25.529419L148.2901,10.388733L145.3648,10.007202L142.48004,10.624084L76.58203,28.685059L30.936035,75.74573L29.193787,77.79108L28.151733,80.2677L10.26239,149.1666L10.416687,153.97894L31.871704,222.20383L33.196777,224.7875L35.28827,226.80167L80.94556,263.22366L150.57428,286.2957L152.79254,286.84286L155.07703,286.80075L157.27374,286.1723L225.37799,259.5763L267.88507,219.28952L269.63263,217.2482L270.67682,214.77216L287.4165,146.23468L287.6654,144.5473L287.58044,142.84384L287.1646,141.18964L286.43414,139.64828L285.4171,138.27914L284.1524,137.1347L282.68878,136.25891L281.08234,135.68558L279.39502,135.43665L277.69147,135.52164L276.0373,135.93741L274.49597,136.66788L273.12677,137.68497L271.9823,138.94968L271.10663,140.41333L270.5332,142.01971L254.40411,207.83688L216.88043,243.41553L153.59875,268.57373L90.44519,247.51297L47.776855,213.95316L27.969788,151.0076L44.512573,87.22302L84.73993,44.98114L146.09125,27.940247L209.99213,42.22943L249.8537,82.08679z" fill="#000000" stroke="none" fill-opacity="1" fill-rule="nonzero" />
			</g>
		</g>
	</g>
</svg>
